<svg width="24" height="20" viewBox="0 0 24 20" fill="none" xmlns="http://www.w3.org/2000/svg">
<path d="M20.6213 12.1045C20.9001 11.8259 21.1213 11.4951 21.2721 11.131C21.423 10.7669 21.5007 10.3767 21.5007 9.98252C21.5007 9.5884 21.423 9.19813 21.2721 8.83403C21.1213 8.46993 20.9001 8.13912 20.6213 7.86052L17.4103 4.64952C17.2199 4.47736 16.9706 4.38502 16.714 4.39161C16.4574 4.39819 16.2131 4.50321 16.0318 4.68492C15.8505 4.86663 15.746 5.1111 15.7399 5.36773C15.7339 5.62436 15.8268 5.87348 15.9993 6.06352L18.9263 8.98952L3.49933 8.98252C3.23411 8.98252 2.97976 9.08788 2.79222 9.27542C2.60469 9.46295 2.49933 9.71731 2.49933 9.98252C2.49933 10.2477 2.60469 10.5021 2.79222 10.6896C2.97976 10.8772 3.23411 10.9825 3.49933 10.9825L18.9073 10.9915L15.9993 13.9015C15.8118 14.0892 15.7065 14.3436 15.7066 14.6089C15.7067 14.8741 15.8122 15.1285 15.9998 15.316C16.1875 15.5035 16.4419 15.6088 16.7072 15.6087C16.9725 15.6086 17.2268 15.5032 17.4143 15.3155L20.6213 12.1045Z" fill="white"/>
</svg>
