<svg width="25" height="24" viewBox="0 0 25 24" fill="none" xmlns="http://www.w3.org/2000/svg">
<g clip-path="url(#clip0_52_1100)">
<path d="M10.378 18.122C10.6566 18.4008 10.9874 18.6219 11.3515 18.7728C11.7156 18.9237 12.1059 19.0014 12.5 19.0014C12.8941 19.0014 13.2844 18.9237 13.6485 18.7728C14.0126 18.6219 14.3434 18.4008 14.622 18.122L17.833 14.911C18.0052 14.7206 18.0975 14.4713 18.0909 14.2147C18.0843 13.958 17.9793 13.7138 17.7976 13.5325C17.6159 13.3512 17.3714 13.2467 17.1148 13.2406C16.8582 13.2346 16.609 13.3274 16.419 13.5L13.493 16.427L13.5 1C13.5 0.734784 13.3946 0.48043 13.2071 0.292893C13.0196 0.105357 12.7652 0 12.5 0C12.2348 0 11.9804 0.105357 11.7929 0.292893C11.6054 0.48043 11.5 0.734784 11.5 1L11.491 16.408L8.581 13.5C8.39336 13.3125 8.13891 13.2072 7.87364 13.2073C7.60837 13.2074 7.35401 13.3129 7.1665 13.5005C6.97899 13.6881 6.8737 13.9426 6.87379 14.2079C6.87389 14.4731 6.97936 14.7275 7.167 14.915L10.378 18.122Z" fill="white"/>
<path d="M23.5 16C23.2348 16 22.9804 16.1054 22.7929 16.2929C22.6054 16.4804 22.5 16.7348 22.5 17V21C22.5 21.2652 22.3946 21.5196 22.2071 21.7071C22.0196 21.8946 21.7652 22 21.5 22H3.5C3.23478 22 2.98043 21.8946 2.79289 21.7071C2.60536 21.5196 2.5 21.2652 2.5 21V17C2.5 16.7348 2.39464 16.4804 2.20711 16.2929C2.01957 16.1054 1.76522 16 1.5 16C1.23478 16 0.98043 16.1054 0.792893 16.2929C0.605357 16.4804 0.5 16.7348 0.5 17L0.5 21C0.5 21.7957 0.81607 22.5587 1.37868 23.1213C1.94129 23.6839 2.70435 24 3.5 24H21.5C22.2956 24 23.0587 23.6839 23.6213 23.1213C24.1839 22.5587 24.5 21.7957 24.5 21V17C24.5 16.7348 24.3946 16.4804 24.2071 16.2929C24.0196 16.1054 23.7652 16 23.5 16Z" fill="white"/>
</g>
<defs>
<clipPath id="clip0_52_1100">
<rect width="24" height="24" fill="white" transform="translate(0.5)"/>
</clipPath>
</defs>
</svg>
