<svg width="65" height="64" viewBox="0 0 65 64" fill="none" xmlns="http://www.w3.org/2000/svg">
<g clip-path="url(#clip0_55_1673)">
<path d="M64.8349 49.59C62.5069 50.182 61.0669 49.616 59.7749 47.676L50.5869 34.964L49.2589 33.204L38.5289 47.718C37.3029 49.464 36.0169 50.224 33.7289 49.606L47.4689 31.162L34.6769 14.502C36.8769 14.074 38.3969 14.292 39.7469 16.262L49.2769 29.132L58.8769 16.332C60.1069 14.586 61.4289 13.922 63.6369 14.566L58.6769 21.142L51.9569 29.892C51.1569 30.892 51.2669 31.576 52.0029 32.542L64.8349 49.59ZM0.8509 30.854L1.9749 25.326C5.0349 14.386 17.5749 9.84002 26.2229 16.6C31.2769 20.576 32.5329 26.2 32.2829 32.5H3.7949C3.3669 43.84 11.5289 50.684 21.9349 47.192C25.5849 45.966 27.7349 43.108 28.8109 39.532C29.3569 37.74 30.2609 37.46 31.9449 37.972C31.0849 42.444 29.1449 46.18 25.0449 48.518C18.9189 52.018 10.1749 50.886 5.5749 46.022C2.8349 43.2 1.7029 39.624 1.1949 35.8C1.1149 35.168 0.9549 34.566 0.8349 33.96C0.845567 32.9254 0.8509 31.8907 0.8509 30.856V30.854ZM3.8469 30.094H29.5909C29.4229 21.894 24.3169 16.07 17.3389 16.02C9.6789 15.96 4.1789 21.646 3.8469 30.094Z" fill="black"/>
</g>
<defs>
<clipPath id="clip0_55_1673">
<rect width="64" height="64" fill="white" transform="translate(0.8349)"/>
</clipPath>
</defs>
</svg>
