<svg width="191" height="48" viewBox="0 0 191 48" fill="none" xmlns="http://www.w3.org/2000/svg">
<g clip-path="url(#clip0_65_64)">
<path d="M79.0587 23.4573V1.144H94.1314V5.03355H83.8716V10.3505H93.1311V14.24H83.8716V23.4573H79.0587ZM103.741 23.7843C102.014 23.7843 100.521 23.4246 99.2613 22.7057C98.0089 21.9792 97.0419 20.9697 96.3601 19.6767C95.6784 18.3766 95.3374 16.8694 95.3374 15.1553C95.3374 13.4265 95.6784 11.9157 96.3601 10.6228C97.0419 9.32265 98.0089 8.313 99.2613 7.59395C100.521 6.86763 102.014 6.50442 103.741 6.50442C105.468 6.50442 106.957 6.86763 108.21 7.59395C109.47 8.313 110.44 9.32265 111.122 10.6228C111.804 11.9157 112.144 13.4265 112.144 15.1553C112.144 16.8694 111.804 18.3766 111.122 19.6767C110.44 20.9697 109.47 21.9792 108.21 22.7057C106.957 23.4246 105.468 23.7843 103.741 23.7843ZM103.763 20.1888C104.549 20.1888 105.205 19.9708 105.731 19.5351C106.257 19.092 106.653 18.4892 106.92 17.7266C107.194 16.9638 107.331 16.0958 107.331 15.1226C107.331 14.1492 107.194 13.2812 106.92 12.5186C106.653 11.7559 106.257 11.153 105.731 10.7099C105.205 10.2669 104.549 10.0453 103.763 10.0453C102.97 10.0453 102.303 10.2669 101.762 10.7099C101.229 11.153 100.825 11.7559 100.551 12.5186C100.284 13.2812 100.151 14.1492 100.151 15.1226C100.151 16.0958 100.284 16.9638 100.551 17.7266C100.825 18.4892 101.229 19.092 101.762 19.5351C102.303 19.9708 102.97 20.1888 103.763 20.1888ZM100.351 4.4343C99.7134 4.4343 99.165 4.21639 98.7055 3.78059C98.2461 3.33752 98.0164 2.81458 98.0164 2.21172C98.0164 1.59432 98.2461 1.07136 98.7055 0.642812C99.165 0.214273 99.7134 0 100.351 0C100.995 0 101.54 0.214273 101.985 0.642812C102.437 1.07136 102.663 1.59432 102.663 2.21172C102.663 2.81458 102.437 3.33752 101.985 3.78059C101.54 4.21639 100.995 4.4343 100.351 4.4343ZM107.154 4.4343C106.516 4.4343 105.968 4.21639 105.508 3.78059C105.049 3.33752 104.819 2.81458 104.819 2.21172C104.819 1.59432 105.049 1.07136 105.508 0.642812C105.968 0.214273 106.516 0 107.154 0C107.798 0 108.343 0.214273 108.787 0.642812C109.239 1.07136 109.466 1.59432 109.466 2.21172C109.466 2.81458 109.239 3.33752 108.787 3.78059C108.343 4.21639 107.798 4.4343 107.154 4.4343ZM115.224 23.4573V6.72233H119.814V9.64219H119.992C120.303 8.6036 120.826 7.81911 121.559 7.28891C122.293 6.75137 123.138 6.48264 124.094 6.48264C124.33 6.48264 124.586 6.49716 124.861 6.5262C125.134 6.55524 125.376 6.59518 125.583 6.64609V10.7645C125.361 10.699 125.053 10.641 124.66 10.5901C124.268 10.5393 123.909 10.5138 123.583 10.5138C122.886 10.5138 122.264 10.6627 121.715 10.9606C121.174 11.2511 120.744 11.6579 120.425 12.1808C120.115 12.7038 119.958 13.3066 119.958 13.9894V23.4573H115.224ZM133.528 23.7297C132.231 23.7297 131.057 23.4028 130.004 22.7491C128.959 22.0882 128.13 21.1185 127.515 19.84C126.907 18.5544 126.603 16.9783 126.603 15.1116C126.603 13.1941 126.918 11.5997 127.548 10.3287C128.178 9.05029 129.015 8.09509 130.06 7.46316C131.113 6.82398 132.265 6.50442 133.517 6.50442C134.473 6.50442 135.27 6.66425 135.907 6.98379C136.552 7.29616 137.07 7.68832 137.463 8.16053C137.863 8.62537 138.167 9.08296 138.375 9.53329H138.519V1.144H143.243V23.4573H138.574V20.7771H138.375C138.153 21.242 137.837 21.7032 137.43 22.1609C137.03 22.6112 136.508 22.9853 135.863 23.283C135.225 23.5809 134.447 23.7297 133.528 23.7297ZM135.029 20.0363C135.792 20.0363 136.437 19.8328 136.963 19.4261C137.497 19.0122 137.904 18.4347 138.186 17.6937C138.475 16.9529 138.619 16.0849 138.619 15.0899C138.619 14.0948 138.479 13.2304 138.197 12.4968C137.915 11.7632 137.508 11.1967 136.974 10.7971C136.441 10.3976 135.792 10.1979 135.029 10.1979C134.251 10.1979 133.595 10.4049 133.061 10.8189C132.528 11.233 132.124 11.8067 131.85 12.5404C131.575 13.274 131.438 14.1238 131.438 15.0899C131.438 16.0632 131.575 16.9239 131.85 17.6719C132.131 18.4129 132.536 18.9939 133.061 19.4152C133.595 19.8292 134.251 20.0363 135.029 20.0363ZM154.918 23.7843C153.162 23.7843 151.649 23.4356 150.382 22.7383C149.123 22.0336 148.152 21.0385 147.47 19.7529C146.789 18.4601 146.447 16.9311 146.447 15.166C146.447 13.4447 146.789 11.9339 147.47 10.6337C148.152 9.33354 149.111 8.32026 150.349 7.59395C151.594 6.86763 153.054 6.50442 154.729 6.50442C155.854 6.50442 156.903 6.68239 157.874 7.03824C158.853 7.38693 159.705 7.91349 160.431 8.61811C161.164 9.32265 161.735 10.2088 162.143 11.2765C162.55 12.337 162.754 13.5791 162.754 15.0027V16.2774H148.337V13.4011H158.296C158.296 12.7329 158.148 12.1409 157.852 11.6252C157.555 11.1094 157.144 10.7063 156.618 10.4158C156.099 10.118 155.496 9.96909 154.807 9.96909C154.088 9.96909 153.45 10.1325 152.894 10.4594C152.346 10.779 151.916 11.2112 151.605 11.7559C151.294 12.2934 151.135 12.8926 151.127 13.5536V16.2883C151.127 17.1164 151.283 17.8317 151.594 18.4347C151.912 19.0375 152.361 19.5024 152.938 19.8293C153.517 20.1561 154.202 20.3196 154.995 20.3196C155.521 20.3196 156.004 20.2469 156.44 20.1017C156.877 19.9563 157.252 19.7385 157.563 19.4479C157.874 19.1574 158.111 18.8015 158.275 18.3802L162.654 18.6635C162.432 19.6948 161.976 20.5956 161.286 21.3654C160.605 22.1281 159.724 22.7238 158.641 23.1524C157.566 23.5736 156.325 23.7843 154.918 23.7843ZM170.58 1.144V23.4573H165.845V1.144H170.58Z" fill="#333333"/>
<path d="M90.5651 35.6023L88.5286 36.1672C88.4005 35.8345 88.2115 35.5112 87.9618 35.1974C87.7184 34.8772 87.3853 34.6135 86.9627 34.4065C86.54 34.1992 85.9989 34.0957 85.3392 34.0957C84.4362 34.0957 83.6836 34.2997 83.0817 34.7078C82.4862 35.1095 82.1883 35.621 82.1883 36.2425C82.1883 36.7949 82.3932 37.2313 82.8031 37.5514C83.2129 37.8716 83.8534 38.1383 84.7245 38.3518L86.9148 38.879C88.234 39.1928 89.2171 39.6731 89.8639 40.3196C90.5107 40.96 90.8341 41.7854 90.8341 42.7961C90.8341 43.6247 90.5908 44.3654 90.104 45.0182C89.6237 45.6712 88.9513 46.1858 88.0867 46.5626C87.2221 46.9393 86.2167 47.1275 85.0702 47.1275C83.5652 47.1275 82.3195 46.8074 81.3333 46.1671C80.347 45.5267 79.7225 44.5915 79.4599 43.3612L81.6118 42.8338C81.8169 43.6121 82.2043 44.1959 82.7743 44.5852C83.3506 44.9744 84.1031 45.169 85.0318 45.169C86.0885 45.169 86.9275 44.9492 87.5487 44.5099C88.1764 44.0641 88.4902 43.5305 88.4902 42.9091C88.4902 42.4069 88.3108 41.9863 87.9522 41.6474C87.5937 41.3021 87.0427 41.0447 86.2998 40.8752L83.8405 40.3103C82.4893 39.9964 81.4966 39.5099 80.8626 38.8508C80.235 38.1854 79.9212 37.3537 79.9212 36.3556C79.9212 35.5396 80.1549 34.8176 80.6224 34.1899C81.0963 33.5621 81.7399 33.0694 82.5534 32.7116C83.3731 32.3537 84.3018 32.1748 85.3392 32.1748C86.7994 32.1748 87.9459 32.4887 88.7784 33.1165C89.6173 33.7441 90.2129 34.5728 90.5651 35.6023ZM100.664 32.3632V34.2464H93.0173V32.3632H100.664ZM95.2461 28.898H97.5131V42.6832C97.5131 43.3108 97.606 43.7816 97.7917 44.0956C97.9839 44.4031 98.2273 44.6102 98.5218 44.717C98.823 44.8175 99.1399 44.8676 99.4729 44.8676C99.7227 44.8676 99.9275 44.855 100.088 44.83C100.248 44.7986 100.376 44.7734 100.472 44.7547L100.933 46.7509C100.779 46.8074 100.565 46.8638 100.29 46.9204C100.014 46.9831 99.6651 47.0144 99.2424 47.0144C98.602 47.0144 97.9743 46.8796 97.3596 46.6097C96.7512 46.3397 96.2451 45.9284 95.8416 45.3761C95.4445 44.8237 95.2461 44.1269 95.2461 43.2857V28.898ZM113.374 40.9129V32.3632H115.641V46.8262H113.374V44.378H113.22C112.874 45.1124 112.336 45.737 111.606 46.2518C110.876 46.7603 109.954 47.0144 108.839 47.0144C107.917 47.0144 107.097 46.8167 106.38 46.4213C105.663 46.0195 105.099 45.4169 104.689 44.6134C104.279 43.8037 104.074 42.7835 104.074 41.5532V32.3632H106.342V41.4026C106.342 42.4571 106.643 43.2983 107.245 43.9261C107.853 44.5538 108.628 44.8676 109.57 44.8676C110.133 44.8676 110.706 44.7265 111.289 44.4439C111.878 44.1614 112.371 43.7284 112.768 43.1446C113.172 42.5606 113.374 41.8168 113.374 40.9129ZM125.365 47.1275C124.135 47.1275 123.049 46.823 122.108 46.2142C121.167 45.5989 120.431 44.7326 119.899 43.6153C119.367 42.4916 119.102 41.164 119.102 39.6323C119.102 38.1131 119.367 36.7949 119.899 35.6776C120.431 34.5602 121.171 33.6971 122.118 33.0883C123.066 32.4793 124.161 32.1748 125.404 32.1748C126.364 32.1748 127.123 32.3318 127.68 32.6456C128.244 32.9531 128.673 33.3047 128.967 33.7003C129.269 34.0895 129.502 34.4095 129.669 34.6606H129.861V27.5422H132.128V46.8262H129.937V44.6039H129.669C129.502 44.8676 129.265 45.2003 128.958 45.6022C128.65 45.9976 128.212 46.3523 127.642 46.6661C127.072 46.9738 126.313 47.1275 125.365 47.1275ZM125.673 45.1313C126.581 45.1313 127.35 44.899 127.978 44.4346C128.606 43.9637 129.083 43.3141 129.409 42.4855C129.736 41.6504 129.899 40.687 129.899 39.5947C129.899 38.515 129.74 37.5703 129.419 36.7604C129.099 35.9444 128.625 35.3104 127.997 34.8584C127.369 34.4002 126.595 34.171 125.673 34.171C124.712 34.171 123.911 34.4128 123.271 34.8961C122.637 35.3731 122.16 36.0229 121.84 36.8452C121.525 37.6613 121.368 38.5778 121.368 39.5947C121.368 40.6241 121.529 41.5595 121.849 42.4006C122.176 43.2356 122.656 43.901 123.29 44.3969C123.93 44.8864 124.724 45.1313 125.673 45.1313ZM136.595 46.8262V32.3632H138.862V46.8262H136.595ZM137.748 29.9527C137.306 29.9527 136.925 29.8051 136.605 29.5102C136.291 29.2151 136.134 28.8604 136.134 28.4461C136.134 28.0318 136.291 27.6772 136.605 27.3821C136.925 27.0871 137.306 26.9395 137.748 26.9395C138.19 26.9395 138.568 27.0871 138.882 27.3821C139.202 27.6772 139.362 28.0318 139.362 28.4461C139.362 28.8604 139.202 29.2151 138.882 29.5102C138.568 29.8051 138.19 29.9527 137.748 29.9527ZM149.009 47.1275C147.677 47.1275 146.508 46.8167 145.503 46.1953C144.504 45.5738 143.722 44.7044 143.159 43.5871C142.602 42.4697 142.323 41.164 142.323 39.67C142.323 38.1634 142.602 36.8483 143.159 35.7247C143.722 34.601 144.504 33.7285 145.503 33.107C146.508 32.4856 147.677 32.1748 149.009 32.1748C150.341 32.1748 151.507 32.4856 152.506 33.107C153.511 33.7285 154.292 34.601 154.85 35.7247C155.414 36.8483 155.695 38.1634 155.695 39.67C155.695 41.164 155.414 42.4697 154.85 43.5871C154.292 44.7044 153.511 45.5738 152.506 46.1953C151.507 46.8167 150.341 47.1275 149.009 47.1275ZM149.009 45.1313C150.022 45.1313 150.853 44.8771 151.507 44.3686C152.161 43.8601 152.644 43.1915 152.957 42.3629C153.272 41.5343 153.428 40.6367 153.428 39.67C153.428 38.7032 153.272 37.8025 152.957 36.9676C152.644 36.1327 152.161 35.4578 151.507 34.9432C150.853 34.4284 150.022 34.171 149.009 34.171C147.997 34.171 147.165 34.4284 146.511 34.9432C145.858 35.4578 145.375 36.1327 145.061 36.9676C144.747 37.8025 144.591 38.7032 144.591 39.67C144.591 40.6367 144.747 41.5343 145.061 42.3629C145.375 43.1915 145.858 43.8601 146.511 44.3686C147.165 44.8771 147.997 45.1313 149.009 45.1313ZM169.607 35.6023L167.572 36.1672C167.443 35.8345 167.255 35.5112 167.004 35.1974C166.761 34.8772 166.428 34.6135 166.005 34.4065C165.583 34.1992 165.042 34.0957 164.382 34.0957C163.48 34.0957 162.727 34.2997 162.125 34.7078C161.529 35.1095 161.231 35.621 161.231 36.2425C161.231 36.7949 161.436 37.2313 161.846 37.5514C162.256 37.8716 162.896 38.1383 163.768 38.3518L165.957 38.879C167.277 39.1928 168.26 39.6731 168.907 40.3196C169.553 40.96 169.878 41.7854 169.878 42.7961C169.878 43.6247 169.634 44.3654 169.147 45.0182C168.667 45.6712 167.995 46.1858 167.13 46.5626C166.266 46.9393 165.26 47.1275 164.113 47.1275C162.608 47.1275 161.362 46.8074 160.377 46.1671C159.39 45.5267 158.766 44.5915 158.503 43.3612L160.655 42.8338C160.86 43.6121 161.247 44.1959 161.817 44.5852C162.394 44.9744 163.146 45.169 164.075 45.169C165.132 45.169 165.97 44.9492 166.592 44.5099C167.22 44.0641 167.533 43.5305 167.533 42.9091C167.533 42.4069 167.354 41.9863 166.995 41.6474C166.637 41.3021 166.086 41.0447 165.343 40.8752L162.883 40.3103C161.532 39.9964 160.539 39.5099 159.906 38.8508C159.278 38.1854 158.964 37.3537 158.964 36.3556C158.964 35.5396 159.198 34.8176 159.666 34.1899C160.139 33.5621 160.783 33.0694 161.596 32.7116C162.416 32.3537 163.345 32.1748 164.382 32.1748C165.843 32.1748 166.989 32.4887 167.821 33.1165C168.66 33.7441 169.255 34.5728 169.607 35.6023Z" fill="#333333"/>
<path d="M19 47.9999V36.3499H23.1429V43.939H62.3896V5.46996H45.8332V1.40942H66.5326V47.9999H19Z" fill="#333333"/>
<path d="M19 31.495V1.40942H40.8801V5.46996H23.1429V31.495H19Z" fill="#FEBF0F"/>
<path d="M26.9504 19.8139V15.7534H36.5499L33.5682 19.8139H26.9504Z" fill="#FEBF0F"/>
</g>
<defs>
<clipPath id="clip0_65_64">
<rect width="153" height="48" fill="white" transform="translate(19)"/>
</clipPath>
</defs>
</svg>
