<svg width="37" height="36" viewBox="0 0 37 36" fill="none" xmlns="http://www.w3.org/2000/svg">
<path d="M22.5588 33V27C22.7675 25.1209 22.2287 23.2352 21.0588 21.75C25.5588 21.75 30.0588 18.75 30.0588 13.5C30.1788 11.625 29.6538 9.78 28.5588 8.25C28.9788 6.525 28.9788 4.725 28.5588 3C28.5588 3 27.0588 3 24.0588 5.25C20.0988 4.5 16.0188 4.5 12.0588 5.25C9.05882 3 7.55882 3 7.55882 3C7.10882 4.725 7.10882 6.525 7.55882 8.25C6.46663 9.77383 5.93653 11.6292 6.05882 13.5C6.05882 18.75 10.5588 21.75 15.0588 21.75C14.4738 22.485 14.0388 23.325 13.7838 24.225C13.5288 25.125 13.4538 26.07 13.5588 27V33" stroke="#0D1321" stroke-width="2" stroke-linecap="round" stroke-linejoin="round"/>
<path d="M13.5588 27C6.79382 30 6.05882 24 3.05882 24" stroke="#0D1321" stroke-width="2" stroke-linecap="round" stroke-linejoin="round"/>
</svg>
