<svg width="32" height="32" viewBox="0 0 32 32" fill="none" xmlns="http://www.w3.org/2000/svg">
<path d="M20 29.3334V24C20.1855 22.3297 19.7066 20.6535 18.6667 19.3334C22.6667 19.3334 26.6667 16.6667 26.6667 12C26.7733 10.3334 26.3067 8.69335 25.3333 7.33335C25.7067 5.80002 25.7067 4.20002 25.3333 2.66669C25.3333 2.66669 24 2.66669 21.3333 4.66669C17.8133 4.00002 14.1867 4.00002 10.6667 4.66669C8.00001 2.66669 6.66668 2.66669 6.66668 2.66669C6.26668 4.20002 6.26668 5.80002 6.66668 7.33335C5.69584 8.68786 5.22464 10.3371 5.33334 12C5.33334 16.6667 9.33334 19.3334 13.3333 19.3334C12.8133 19.9867 12.4267 20.7334 12.2 21.5334C11.9733 22.3334 11.9067 23.1734 12 24V29.3334" stroke="white" stroke-width="2" stroke-linecap="round" stroke-linejoin="round"/>
<path d="M12 24C5.98666 26.6666 5.33332 21.3333 2.66666 21.3333" stroke="white" stroke-width="2" stroke-linecap="round" stroke-linejoin="round"/>
</svg>
