<svg width="334" height="400" viewBox="0 0 334 400" fill="none" xmlns="http://www.w3.org/2000/svg">
<g clip-path="url(#clip0_13_373)">
<path opacity="0.64" d="M166.807 400C258.656 400 333.114 385.02 333.114 366.54C333.114 348.061 258.656 333.081 166.807 333.081C74.9573 333.081 0.498749 348.061 0.498749 366.54C0.498749 385.02 74.9573 400 166.807 400Z" fill="#F1E4FF"/>
<path d="M87.0835 361.164C89.4178 353.595 96.5625 349.563 108.164 346.167C115.52 344.045 124.858 343.055 139.501 340.084C146.646 338.669 151.669 335.84 151.669 335.84V343.975C151.669 343.975 103.212 353.524 95.6429 366.045C91.9645 372.199 93.0963 387.267 110.427 388.823C105.122 389.601 96.4211 388.257 91.7522 383.517C85.9516 377.646 84.3954 369.794 87.0835 361.164Z" fill="#282323" stroke="black" stroke-width="4" stroke-miterlimit="10" stroke-linecap="round" stroke-linejoin="round"/>
<path d="M151.669 343.975C151.669 343.975 122.665 349.351 107.174 356C93.5915 361.872 94.0159 367.955 93.6623 374.18C93.45 377.787 95.9967 386.701 106.324 388.257C118.633 390.097 133.135 388.116 151.669 376.302C151.669 347.37 151.669 343.975 151.669 343.975Z" fill="#442C2A"/>
<path opacity="0.37" d="M93.6623 374.18C93.9452 369.158 93.733 364.206 100.807 359.395C100.524 361.164 100.453 362.861 100.382 364.631C100.17 368.238 108.872 363.57 119.199 365.055C129.952 366.682 136.318 378.99 151.669 370.714C151.669 372.483 151.669 374.321 151.669 376.232C133.135 388.045 118.633 389.955 106.324 388.186C95.9967 386.701 93.45 377.717 93.6623 374.18Z" fill="#442C2A"/>
<path d="M151.669 343.975C151.669 343.975 122.665 349.351 107.174 356C93.5915 361.872 94.0159 367.955 93.6623 374.18C93.45 377.787 95.9967 386.701 106.324 388.257C118.633 390.097 133.135 388.116 151.669 376.302C151.669 347.37 151.669 343.975 151.669 343.975Z" stroke="black" stroke-width="4" stroke-miterlimit="10" stroke-linecap="round" stroke-linejoin="round"/>
<path d="M124.788 360.599C122.453 361.871 123.019 374.251 128.678 375.949" stroke="black" stroke-width="4" stroke-miterlimit="10" stroke-linecap="round" stroke-linejoin="round"/>
<path d="M133.63 359.679C131.224 363.074 132.922 371.068 137.237 373.049" stroke="black" stroke-width="4" stroke-miterlimit="10" stroke-linecap="round" stroke-linejoin="round"/>
<path d="M141.765 356.849C139.36 360.245 141.058 368.238 145.372 370.219" stroke="black" stroke-width="4" stroke-miterlimit="10" stroke-linecap="round" stroke-linejoin="round"/>
<path d="M225.237 320.207C209.958 330.817 188.241 336.901 165.533 336.901C142.897 336.901 121.109 330.817 105.83 320.207C98.8263 315.325 87.0835 305.139 87.0835 291.557C87.0835 277.975 98.8263 267.788 105.83 262.908C121.109 252.296 142.826 246.213 165.533 246.213C188.17 246.213 209.958 252.296 225.237 262.908C232.241 267.788 243.983 277.975 243.983 291.557C243.983 305.139 232.241 315.325 225.237 320.207Z" fill="#0D1321"/>
<path d="M295.198 302.875C294.915 304.29 294.633 305.634 294.208 307.049C283.173 347.299 229.977 377.859 165.958 377.859C101.797 377.859 48.46 347.158 37.6369 306.766C37.354 305.634 37.071 304.502 36.8587 303.37C36.5758 301.248 36.6466 299.125 37.0709 297.004C39.6884 285.119 54.1191 278.258 69.3281 281.653C79.3023 283.846 87.0836 290 90.5498 297.287C90.9035 298.843 91.4694 300.399 92.1061 301.885C95.7845 310.374 103.142 316.74 108.093 320.277C122.878 330.888 144.028 336.971 165.958 336.971C187.958 336.971 209.038 330.888 223.823 320.277C228.845 316.669 236.272 310.232 239.88 301.743C240.446 300.399 240.941 298.914 241.295 297.499C244.69 290.142 252.542 283.988 262.587 281.724C277.796 278.328 292.228 285.26 294.844 297.074C295.34 298.914 295.411 300.895 295.198 302.875Z" fill="#1E3A8A"/>
<path opacity="0.67" d="M294.844 296.933C294.774 296.579 294.703 296.296 294.561 295.943C294.35 297.074 294.066 298.277 293.713 299.409C282.819 339.659 229.553 370.219 165.604 370.219C101.444 370.219 48.1062 339.518 37.2831 299.126C37.1417 298.701 37.0709 298.277 36.9294 297.782C36.6464 299.621 36.5757 301.46 36.8586 303.229C37.0709 304.361 37.3539 305.492 37.6368 306.625C48.4598 347.017 101.797 377.717 165.958 377.717C229.977 377.717 283.173 347.158 294.208 306.907C294.561 305.564 294.915 304.148 295.198 302.734C295.411 300.895 295.34 298.914 294.844 296.933Z" fill="#162A61"/>
<path d="M295.198 302.875C294.915 304.29 294.633 305.634 294.208 307.049C283.173 347.299 229.977 377.859 165.958 377.859C101.797 377.859 48.46 347.158 37.6369 306.766C37.354 305.634 37.071 304.502 36.8587 303.37C36.5758 301.248 36.6466 299.125 37.0709 297.004C39.6884 285.119 54.1191 278.258 69.3281 281.653C79.3023 283.846 87.0836 290 90.5498 297.287C90.9035 298.843 91.4694 300.399 92.1061 301.885C95.7845 310.374 103.142 316.74 108.093 320.277C122.878 330.888 144.028 336.971 165.958 336.971C187.958 336.971 209.038 330.888 223.823 320.277C228.845 316.669 236.272 310.232 239.88 301.743C240.446 300.399 240.941 298.914 241.295 297.499C244.69 290.142 252.542 283.988 262.587 281.724C277.796 278.328 292.228 285.26 294.844 297.074C295.34 298.914 295.411 300.895 295.198 302.875Z" stroke="black" stroke-width="4" stroke-miterlimit="10" stroke-linecap="round" stroke-linejoin="round"/>
<path d="M166.806 315.325C202.007 315.325 230.542 305.634 230.542 293.68C230.542 281.724 202.007 272.033 166.806 272.033C131.606 272.033 103.07 281.724 103.07 293.68C103.07 305.634 131.606 315.325 166.806 315.325Z" fill="#8A0E39"/>
<path d="M166.806 315.325C202.007 315.325 230.542 305.634 230.542 293.68C230.542 281.724 202.007 272.033 166.806 272.033C131.606 272.033 103.07 281.724 103.07 293.68C103.07 305.634 131.606 315.325 166.806 315.325Z" stroke="black" stroke-width="4" stroke-miterlimit="10" stroke-linecap="round" stroke-linejoin="round"/>
<path d="M239.385 246.425H92.5305C81.2829 246.425 72.5821 236.592 73.9968 225.416L80.5048 173.423C82.3441 158.567 94.9356 147.461 109.933 147.461H222.125C237.051 147.461 249.642 158.567 251.553 173.423L258.06 225.416C259.334 236.592 250.633 246.425 239.385 246.425Z" fill="#F1534D"/>
<path d="M239.385 246.425H92.5305C81.2829 246.425 72.5821 236.592 73.9968 225.416L80.5048 173.423C82.3441 158.567 94.9356 147.461 109.933 147.461H222.125C237.051 147.461 249.642 158.567 251.553 173.423L258.06 225.416C259.334 236.592 250.633 246.425 239.385 246.425Z" stroke="black" stroke-width="4" stroke-miterlimit="10" stroke-linecap="round" stroke-linejoin="round"/>
<path d="M108.446 191.39L107.032 209.146" stroke="black" stroke-width="4" stroke-miterlimit="10" stroke-linecap="round" stroke-linejoin="round"/>
<path d="M224.53 191.39L225.945 209.146" stroke="black" stroke-width="4" stroke-miterlimit="10" stroke-linecap="round" stroke-linejoin="round"/>
<path d="M239.385 246.425H92.5304C81.2828 246.425 72.5819 236.592 73.9967 225.416L80.5047 173.423C82.3439 158.567 94.9355 147.461 109.933 147.461H222.125C237.051 147.461 249.642 158.567 251.552 173.423L258.06 225.416C259.333 236.592 250.633 246.425 239.385 246.425Z" fill="#B9104B"/>
<g opacity="0.24">
<path opacity="0.24" d="M80.4341 178.94C82.2732 164.085 94.8648 152.978 109.862 152.978H222.053C236.979 152.978 249.572 164.085 251.481 178.94L257.918 230.509C258.131 228.882 258.202 227.184 257.989 225.416L251.481 173.423C249.642 158.567 237.051 147.461 222.053 147.461H109.862C94.9356 147.461 82.344 158.567 80.4341 173.423L73.926 225.416C73.7138 227.113 73.7139 228.811 73.9968 230.509L80.4341 178.94Z" fill="#9B2121"/>
<path opacity="0.24" d="M116.37 152.978C116.37 152.978 125.07 154.535 125.777 159.345C126.344 163.236 126.273 165.782 127.758 167.339C129.244 168.895 132.71 172.079 139.714 172.079C135.823 168.187 135.752 154.535 134.691 154.535C133.701 154.535 131.154 147.744 131.154 147.744L127.758 146.187C127.83 146.187 115.309 147.744 116.37 152.978Z" fill="#9B2121"/>
<path opacity="0.24" d="M209.321 152.978C209.321 152.978 200.62 154.535 199.912 159.345C199.347 163.236 199.418 165.782 197.931 167.339C196.446 168.824 192.98 172.079 185.977 172.079C189.868 168.187 189.939 154.535 191 154.535C191.99 154.535 194.536 147.744 194.536 147.744L197.931 146.187C197.861 146.187 210.382 147.744 209.321 152.978Z" fill="#9B2121"/>
</g>
<path d="M239.385 246.425H92.5304C81.2828 246.425 72.5819 236.592 73.9967 225.416L80.5047 173.423C82.3439 158.567 94.9355 147.461 109.933 147.461H222.125C237.051 147.461 249.642 158.567 251.552 173.423L258.06 225.416C259.333 236.592 250.633 246.425 239.385 246.425Z" stroke="black" stroke-width="4" stroke-miterlimit="10" stroke-linecap="round" stroke-linejoin="round"/>
<path d="M108.446 191.39L107.032 209.146" stroke="black" stroke-width="4" stroke-miterlimit="10" stroke-linecap="round" stroke-linejoin="round"/>
<path d="M224.53 191.39L225.945 209.146" stroke="black" stroke-width="4" stroke-miterlimit="10" stroke-linecap="round" stroke-linejoin="round"/>
<path d="M147.07 117.892L123.797 116.689L112.903 117.892C112.903 117.892 105.617 123.339 105.617 124.824C105.617 126.31 106.324 138.406 106.324 138.406C106.324 138.406 123.514 140.741 125.353 142.509C127.193 144.278 138.087 154.464 138.087 154.464L148.627 150.362L154.144 135.647L147.07 117.892Z" fill="#8A0E39"/>
<path d="M142.967 108.909H116.087C105.263 108.909 96.4212 117.681 96.4212 128.574C96.4212 139.397 105.193 148.24 116.087 148.24H119.623C125.353 148.24 129.952 152.837 129.952 158.567V159.628C129.952 166.491 135.54 172.079 142.402 172.079V159.346C142.543 159.346 142.684 159.487 142.684 159.628V158.567C142.684 145.835 132.357 135.506 119.623 135.506H116.087C112.267 135.506 109.155 132.394 109.155 128.574C109.155 124.755 112.267 121.641 116.087 121.641H142.967V108.909Z" fill="#B9104B"/>
<path d="M141.341 150.573C138.087 141.802 129.598 135.436 119.695 135.436H116.158C112.338 135.436 109.225 132.323 109.225 128.503C109.225 124.683 112.338 121.571 116.158 121.571H143.039V108.837H116.158C105.335 108.837 96.4923 117.609 96.4923 128.503C96.4923 139.326 105.263 148.168 116.158 148.168H119.695C125.425 148.168 130.022 152.767 130.022 158.497V159.558C130.022 166.419 135.611 172.008 142.473 172.008" stroke="black" stroke-width="4" stroke-miterlimit="10" stroke-linecap="round" stroke-linejoin="round"/>
<path d="M177.842 117.892L201.115 116.689L212.009 117.892C212.009 117.892 219.295 123.339 219.295 124.824C219.295 126.31 218.587 138.406 218.587 138.406C218.587 138.406 201.398 140.741 199.559 142.509C197.72 144.349 186.826 154.464 186.826 154.464L176.285 150.362L170.768 135.647L177.842 117.892Z" fill="#8A0E39"/>
<path d="M181.945 108.908H208.825C219.648 108.908 228.491 117.68 228.491 128.573C228.491 139.396 219.72 148.239 208.825 148.239H205.289C199.559 148.239 194.961 152.837 194.961 158.567V159.628C194.961 166.49 189.372 172.079 182.511 172.079V159.345C182.369 159.345 182.228 159.487 182.228 159.628V158.567C182.228 145.834 192.555 135.506 205.289 135.506H208.825C212.646 135.506 215.758 132.394 215.758 128.573C215.758 124.754 212.646 121.641 208.825 121.641H181.945V108.908Z" fill="#B9104B"/>
<path d="M183.642 150.573C186.897 141.802 195.385 135.436 205.289 135.436H208.825C212.646 135.436 215.758 132.323 215.758 128.503C215.758 124.683 212.646 121.571 208.825 121.571H181.945V108.837H208.825C219.648 108.837 228.491 117.609 228.491 128.503C228.491 139.326 219.72 148.168 208.825 148.168H205.289C199.559 148.168 194.961 152.767 194.961 158.497V159.558C194.961 166.419 189.372 172.008 182.511 172.008" stroke="black" stroke-width="4" stroke-miterlimit="10" stroke-linecap="round" stroke-linejoin="round"/>
<path d="M163.765 162.033C179.002 162.033 191.353 149.682 191.353 134.445C191.353 119.208 179.002 106.856 163.765 106.856C148.528 106.856 136.176 119.208 136.176 134.445C136.176 149.682 148.528 162.033 163.765 162.033Z" fill="#B9104B"/>
<path d="M137.379 126.31C145.019 131.191 154.074 134.092 163.765 134.092C173.456 134.092 182.511 131.261 190.15 126.31C186.684 114.991 176.215 106.786 163.765 106.786C151.385 106.856 140.845 115.063 137.379 126.31Z" fill="#B9104B"/>
<path d="M163.765 162.033C179.002 162.033 191.353 149.682 191.353 134.445C191.353 119.208 179.002 106.856 163.765 106.856C148.528 106.856 136.176 119.208 136.176 134.445C136.176 149.682 148.528 162.033 163.765 162.033Z" stroke="black" stroke-width="4" stroke-miterlimit="10" stroke-linecap="round" stroke-linejoin="round"/>
<path d="M163.765 150.432C154.781 150.432 147.495 143.146 147.495 134.162V121.995C147.495 119.731 149.334 117.892 151.598 117.892H176.003C178.266 117.892 180.106 119.731 180.106 121.995V134.162C180.035 143.146 172.749 150.432 163.765 150.432Z" fill="#FFC897"/>
<path d="M176.003 117.892H151.598C149.334 117.892 147.495 119.873 147.495 122.278V132.252C152.588 134.162 158.035 135.223 163.765 135.223C169.494 135.223 174.942 134.162 180.035 132.252V122.278C180.035 119.873 178.195 117.892 176.003 117.892Z" fill="#E5A973"/>
<path d="M163.765 150.432C154.781 150.432 147.495 143.146 147.495 134.162V121.995C147.495 119.731 149.334 117.892 151.598 117.892H176.003C178.266 117.892 180.106 119.731 180.106 121.995V134.162C180.035 143.146 172.749 150.432 163.765 150.432Z" stroke="black" stroke-width="4" stroke-miterlimit="10" stroke-linecap="round" stroke-linejoin="round"/>
<path d="M181.379 333.717H166.241V382.032H181.379V333.717Z" fill="#607691"/>
<path d="M181.379 333.717H166.241V382.032H181.379V333.717Z" stroke="black" stroke-width="4" stroke-miterlimit="10" stroke-linecap="round" stroke-linejoin="round"/>
<path d="M92.0353 301.743C91.3986 300.258 90.9035 298.773 90.479 297.146C91.2571 298.701 91.7524 300.187 92.0353 301.743Z" stroke="black" stroke-width="4" stroke-miterlimit="10" stroke-linecap="round" stroke-linejoin="round"/>
<path d="M239.951 301.602C240.234 300.116 240.729 298.701 241.365 297.357C241.012 298.843 240.517 300.258 239.951 301.602Z" stroke="black" stroke-width="4" stroke-miterlimit="10" stroke-linecap="round" stroke-linejoin="round"/>
<path d="M239.739 298.207H92.2475C87.0127 298.207 82.5562 294.316 81.8488 289.081L72.6527 217.069C71.8746 210.843 76.7556 205.255 83.0514 205.255H248.935C255.23 205.255 260.112 210.773 259.333 217.069L250.137 289.081C249.43 294.245 244.973 298.207 239.739 298.207Z" fill="#B5B5B5"/>
<path opacity="0.21" d="M250.066 284.554C249.43 289.788 244.973 293.679 239.667 293.679H92.2475C87.0128 293.679 82.5563 289.788 81.8489 284.554L72.7943 213.602C72.582 214.735 72.5112 215.866 72.6528 217.068L81.8489 289.081C82.4855 294.315 86.9421 298.207 92.2475 298.207H239.739C244.973 298.207 249.43 294.315 250.137 289.081L259.333 217.068C259.475 215.866 259.405 214.735 259.192 213.602L250.066 284.554Z" fill="#7E7E7E"/>
<path opacity="0.21" d="M72.7234 217.705C73.5723 212.895 77.8166 209.075 82.9807 209.075H248.864C254.099 209.075 258.272 212.824 259.121 217.705L259.192 216.997C259.97 210.773 255.089 205.184 248.793 205.184H83.0514C76.7556 205.184 71.8746 210.702 72.6527 216.997L72.7234 217.705Z" fill="#7E7E7E"/>
<path d="M239.739 298.207H92.2475C87.0127 298.207 82.5562 294.316 81.8488 289.081L72.6527 217.069C71.8746 210.843 76.7556 205.255 83.0514 205.255H248.935C255.23 205.255 260.112 210.773 259.333 217.069L250.137 289.081C249.43 294.245 244.973 298.207 239.739 298.207Z" stroke="black" stroke-width="4" stroke-miterlimit="10" stroke-linecap="round" stroke-linejoin="round"/>
<path opacity="0.66" d="M172.961 247.345C169.777 247.345 167.231 244.798 167.231 241.615C167.231 241.403 167.231 241.191 167.302 240.978C166.736 240.908 166.17 240.837 165.604 240.837C160.44 240.837 156.195 245.081 156.195 250.245C156.195 255.41 160.44 259.653 165.604 259.653C170.768 259.653 175.013 255.41 175.013 250.245C175.013 249.184 174.8 248.123 174.517 247.132C174.022 247.203 173.526 247.345 172.961 247.345Z" fill="#B5B5B5"/>
<path d="M245.964 361.164C243.629 353.595 236.485 349.563 224.884 346.167C217.526 344.045 208.189 343.055 193.546 340.084C186.401 338.669 181.378 335.84 181.378 335.84V343.975C181.378 343.975 229.835 353.524 237.405 366.045C241.083 372.199 239.951 387.267 222.62 388.823C227.925 389.601 236.626 388.257 241.295 383.517C247.095 377.646 248.652 369.794 245.964 361.164Z" fill="#282323" stroke="black" stroke-width="4" stroke-miterlimit="10" stroke-linecap="round" stroke-linejoin="round"/>
<path d="M181.378 343.975C181.378 343.975 210.382 349.351 225.874 356C239.456 361.872 239.032 367.955 239.385 374.18C239.597 377.787 237.051 386.701 226.722 388.257C214.414 390.097 199.912 388.116 181.378 376.302C181.378 347.37 181.378 343.975 181.378 343.975Z" fill="#442C2A"/>
<path opacity="0.37" d="M239.385 374.18C239.102 369.158 239.314 364.206 232.241 359.395C232.523 361.164 232.594 362.861 232.665 364.631C232.877 368.238 230.33 377.152 220.002 378.707C209.25 380.335 196.729 378.99 181.378 370.714C181.378 372.483 181.378 374.321 181.378 376.232C199.912 388.045 214.414 389.955 226.722 388.186C237.121 386.701 239.597 377.717 239.385 374.18Z" fill="#442C2A"/>
<path d="M181.378 343.975C181.378 343.975 210.382 349.351 225.874 356C239.456 361.872 239.032 367.955 239.385 374.18C239.597 377.787 237.051 386.701 226.722 388.257C214.414 390.097 199.912 388.116 181.378 376.302C181.378 347.37 181.378 343.975 181.378 343.975Z" stroke="black" stroke-width="4" stroke-miterlimit="10" stroke-linecap="round" stroke-linejoin="round"/>
<path d="M208.26 360.599C210.594 361.871 210.028 374.251 204.369 375.949" stroke="black" stroke-width="4" stroke-miterlimit="10" stroke-linecap="round" stroke-linejoin="round"/>
<path d="M199.418 359.679C201.823 363.074 200.125 371.068 195.81 373.049" stroke="black" stroke-width="4" stroke-miterlimit="10" stroke-linecap="round" stroke-linejoin="round"/>
<path d="M191.283 356.849C193.688 360.245 191.99 368.238 187.675 370.219" stroke="black" stroke-width="4" stroke-miterlimit="10" stroke-linecap="round" stroke-linejoin="round"/>
<path d="M138.935 164.862V202.496" stroke="black" stroke-width="6" stroke-miterlimit="10" stroke-linecap="round" stroke-linejoin="round"/>
<path d="M186.684 164.862V191.39" stroke="black" stroke-width="6" stroke-miterlimit="10" stroke-linecap="round" stroke-linejoin="round"/>
<path d="M186.684 199.383C189.926 199.383 192.555 196.755 192.555 193.512C192.555 190.27 189.926 187.641 186.684 187.641C183.442 187.641 180.813 190.27 180.813 193.512C180.813 196.755 183.442 199.383 186.684 199.383Z" fill="black"/>
<path d="M186.684 195.21C188.013 195.21 189.089 194.133 189.089 192.805C189.089 191.476 188.013 190.4 186.684 190.4C185.356 190.4 184.279 191.476 184.279 192.805C184.279 194.133 185.356 195.21 186.684 195.21Z" fill="#7E7E7E"/>
<path d="M163.765 129.847C139.148 129.847 119.128 109.898 119.128 85.2105V33.4294H208.401V85.2105C208.401 109.828 188.452 129.847 163.765 129.847Z" fill="#FFC897"/>
<path d="M163.765 123.693C139.148 123.693 119.128 103.744 119.128 79.0562V85.2105C119.128 109.828 139.077 129.847 163.765 129.847C188.382 129.847 208.401 109.898 208.401 85.2105V79.0562C208.401 103.674 188.452 123.693 163.765 123.693Z" fill="#E5A973"/>
<path d="M163.765 129.847C139.148 129.847 119.128 109.898 119.128 85.2105V33.4294H208.401V85.2105C208.401 109.828 188.452 129.847 163.765 129.847Z" stroke="black" stroke-width="4" stroke-miterlimit="10" stroke-linecap="round" stroke-linejoin="round"/>
<path d="M208.755 38.5934C208.614 36.1883 208.472 33.7124 208.401 31.3073C178.691 32.7221 148.838 32.5099 119.199 29.8925C118.986 32.6514 118.845 35.4102 118.633 38.1691C119.977 39.3716 121.392 40.6448 122.737 41.8474C123.868 42.4134 125.353 43.1915 126.697 43.8989C132.64 47.0114 140.916 50.9728 148.838 52.5291C151.739 53.095 154.781 53.3779 157.893 53.3072C171.263 53.1657 182.511 47.8602 187.25 45.6674C187.958 45.3136 188.524 45.0307 188.878 44.96C189.16 44.8185 189.443 44.7478 189.868 44.7478C190.716 44.7478 191.707 44.96 192.909 45.1722C194.465 45.5259 196.304 45.8796 198.357 45.7381C200.69 45.5967 202.813 44.8893 204.864 43.5452C206.066 41.8474 207.411 40.2204 208.755 38.5934Z" fill="#E5A973"/>
<path d="M187.25 11.7125C187.25 11.7125 151.526 -11.8435 121.958 14.4714C116.44 19.3524 114.248 26.3556 114.248 32.7929V66.8892H119.199V42.1305C119.199 40.2912 120.473 38.8765 122.028 38.8765C124.575 38.8765 138.37 46.2333 150.041 48.2847C167.655 51.3266 183.713 43.1915 187.18 41.9889C193.121 39.8668 197.931 47.2237 205.43 38.9472H205.713C207.27 38.9472 208.543 40.4327 208.543 42.2011V66.9599H213.494V33.005C213.353 24.6578 203.732 3.71904 187.25 11.7125Z" fill="#231A17"/>
<g opacity="0.34">
<path opacity="0.34" d="M119.128 62.2205H114.176V66.8893H119.128V62.2205Z" fill="#231A17"/>
<path opacity="0.34" d="M213.353 62.2205H208.401V66.8893H213.353V62.2205Z" fill="#231A17"/>
</g>
<path d="M187.25 11.7125C187.25 11.7125 151.526 -11.8435 121.958 14.4714C116.44 19.3524 114.248 26.3556 114.248 32.7929V66.8892H119.199V42.1305C119.199 40.2912 120.473 38.8765 122.028 38.8765C124.575 38.8765 138.37 46.2333 150.041 48.2847C167.655 51.3266 183.713 43.1915 187.18 41.9889C193.121 39.8668 197.931 47.2237 205.43 38.9472H205.713C207.27 38.9472 208.543 40.4327 208.543 42.2011V66.9599H213.494V33.005C213.353 24.6578 203.732 3.71904 187.25 11.7125Z" stroke="black" stroke-width="4" stroke-miterlimit="10" stroke-linecap="round" stroke-linejoin="round"/>
<path d="M157.045 34.7028C157.045 34.7028 118.704 37.1787 110.569 16.8058" stroke="black" stroke-width="4" stroke-miterlimit="10" stroke-linecap="round" stroke-linejoin="round"/>
<path d="M162.492 29.8218C162.492 29.8218 125.566 27.4874 115.945 7.11453" stroke="black" stroke-width="4" stroke-miterlimit="10" stroke-linecap="round" stroke-linejoin="round"/>
<path d="M208.401 61.3714V84.5739C213.353 84.5739 217.314 79.4099 217.314 72.9726C217.314 66.5354 213.353 61.3714 208.401 61.3714Z" fill="#FFC897"/>
<path d="M208.401 62.6447V83.2298C211.302 81.3199 213.283 77.4292 213.283 72.902C213.283 68.4454 211.302 64.5548 208.401 62.6447Z" fill="#E5A973"/>
<path d="M208.401 61.3714V84.5739C213.353 84.5739 217.314 79.4099 217.314 72.9726C217.314 66.5354 213.353 61.3714 208.401 61.3714Z" stroke="black" stroke-width="4" stroke-miterlimit="10" stroke-linecap="round" stroke-linejoin="round"/>
<path d="M119.199 61.3714V84.5739C114.247 84.5739 110.286 79.4099 110.286 72.9726C110.216 66.5354 114.247 61.3714 119.199 61.3714Z" fill="#FFC897"/>
<path d="M119.199 63.0692C116.653 65.1206 114.884 68.7991 114.884 72.9727C114.884 77.1463 116.581 80.8248 119.199 82.8762V63.0692Z" fill="#E5A973"/>
<path d="M119.199 61.3714V84.5739C114.247 84.5739 110.286 79.4099 110.286 72.9726C110.216 66.5354 114.247 61.3714 119.199 61.3714Z" stroke="black" stroke-width="4" stroke-miterlimit="10" stroke-linecap="round" stroke-linejoin="round"/>
<path d="M161.925 80.2589L158.954 89.9502C158.954 91.0113 162.421 90.1624 165.958 91.0113" stroke="black" stroke-width="4" stroke-miterlimit="10" stroke-linecap="round" stroke-linejoin="round"/>
<path d="M178.62 98.368C179.682 105.725 170.203 112.233 162.775 110.889" stroke="black" stroke-width="3" stroke-miterlimit="10" stroke-linecap="round" stroke-linejoin="round"/>
<path d="M147.707 72.0531C149.348 72.0531 150.678 70.6279 150.678 68.8699C150.678 67.1118 149.348 65.6866 147.707 65.6866C146.067 65.6866 144.737 67.1118 144.737 68.8699C144.737 70.6279 146.067 72.0531 147.707 72.0531Z" stroke="black" stroke-width="2" stroke-miterlimit="10" stroke-linecap="round" stroke-linejoin="round"/>
<path d="M147.707 72.0531C149.348 72.0531 150.678 70.6279 150.678 68.8699C150.678 67.1118 149.348 65.6866 147.707 65.6866C146.067 65.6866 144.737 67.1118 144.737 68.8699C144.737 70.6279 146.067 72.0531 147.707 72.0531Z" fill="black"/>
<path d="M137.45 62.1495C138.935 60.3811 142.402 59.1784 146.505 59.1784C149.758 59.1784 152.588 59.9566 154.357 61.1592" stroke="black" stroke-width="3" stroke-miterlimit="10" stroke-linecap="round" stroke-linejoin="round"/>
<path d="M180.247 72.0531C181.888 72.0531 183.218 70.6279 183.218 68.8699C183.218 67.1118 181.888 65.6866 180.247 65.6866C178.607 65.6866 177.276 67.1118 177.276 68.8699C177.276 70.6279 178.607 72.0531 180.247 72.0531Z" stroke="black" stroke-width="2" stroke-miterlimit="10" stroke-linecap="round" stroke-linejoin="round"/>
<path d="M180.247 72.0531C181.888 72.0531 183.218 70.6279 183.218 68.8699C183.218 67.1118 181.888 65.6866 180.247 65.6866C178.607 65.6866 177.276 67.1118 177.276 68.8699C177.276 70.6279 178.607 72.0531 180.247 72.0531Z" fill="black"/>
<path d="M190.505 62.1495C189.019 60.3811 185.553 59.1784 181.45 59.1784C178.195 59.1784 175.366 59.9566 173.598 61.1592" stroke="black" stroke-width="3" stroke-miterlimit="10" stroke-linecap="round" stroke-linejoin="round"/>
</g>
<defs>
<clipPath id="clip0_13_373">
<rect width="333.501" height="400" fill="white" transform="translate(0.498749)"/>
</clipPath>
</defs>
</svg>
