<svg width="65" height="64" viewBox="0 0 65 64" fill="none" xmlns="http://www.w3.org/2000/svg">
<path d="M0.5 64V0H64.5V64H0.5Z" fill="#FFD600"/>
<path d="M42.3454 47.9058C43.5756 49.904 44.9125 51.8187 47.7445 51.8187C50.1231 51.8187 51.3712 50.6365 51.3712 49.0009C51.3712 47.0436 50.0805 46.3485 47.4636 45.2089L46.0289 44.5973C41.8885 42.8409 39.1347 40.64 39.1347 35.9911C39.1347 31.7067 42.4147 28.4462 47.54 28.4462C51.1898 28.4462 53.812 29.7102 55.7036 33.0205L51.2343 35.8773C50.2511 34.1209 49.188 33.4293 47.54 33.4293C45.8583 33.4293 44.7934 34.4907 44.7934 35.8773C44.7934 37.5911 45.86 38.2845 48.3223 39.3458L49.7569 39.9573C54.6369 42.0356 57.3889 44.1582 57.3889 48.9298C57.3889 54.0711 53.3285 56.8889 47.8778 56.8889C42.5463 56.8889 39.5187 54.2133 37.8334 50.9013L42.3454 47.9058ZM21.748 48.0516C22.6476 49.6622 24.0147 50.9013 25.9809 50.9013C27.8618 50.9013 28.9445 50.1582 28.9445 47.2693V28.4445H34.8698V48.1796C34.8698 54.1653 31.3978 56.8889 26.3276 56.8889C21.7463 56.8889 18.4396 53.7849 17.092 50.9013L21.748 48.0516Z" fill="#000001"/>
</svg>
