<svg width="34" height="36" viewBox="0 0 34 36" fill="none" xmlns="http://www.w3.org/2000/svg">
<path d="M28.9289 30.6758H23.9082V22.3217C23.9082 20.3294 23.8748 17.7658 21.2969 17.7658C18.6822 17.7658 18.2815 19.9355 18.2815 22.178V30.6758H13.2625V13.4956H18.0828V15.8427H18.1496C19.133 14.058 20.9596 12.9918 22.9047 13.0681C27.9939 13.0681 28.9305 16.6251 28.9305 21.2501L28.9289 30.6758ZM7.59733 11.1468C5.98778 11.1468 4.68377 9.76121 4.68377 8.051C4.68377 6.34079 5.98778 4.95524 7.59733 4.95524C9.20687 4.95524 10.5109 6.34079 10.5109 8.051C10.5109 9.76121 9.20687 11.1468 7.59733 11.1468ZM10.1068 30.6758H5.08115V13.4956H10.1068V30.6758ZM31.4317 0.0020164H2.5583C1.19419 -0.0139503 0.0755192 1.14807 0.0588226 2.59749V33.4025C0.0755192 34.8537 1.19419 36.0158 2.5583 35.9998H31.4317C32.7991 36.0175 33.9228 34.8555 33.9412 33.4025V2.59572C33.9211 1.14275 32.7975 -0.0192726 31.4317 0.000242242" fill="#0D1321"/>
</svg>
