<svg width="32" height="32" viewBox="0 0 32 32" fill="none" xmlns="http://www.w3.org/2000/svg">
<path d="M27.2662 27.2674H22.5244V19.8415C22.5244 18.0706 22.4929 15.7919 20.0581 15.7919C17.5887 15.7919 17.2103 17.7205 17.2103 19.7138V27.2674H12.4701V11.9961H17.0226V14.0824H17.0857C18.0145 12.496 19.7396 11.5483 21.5767 11.6161C26.3831 11.6161 27.2677 14.7779 27.2677 18.889L27.2662 27.2674ZM7.1197 9.90823C5.59957 9.90823 4.36801 8.67663 4.36801 7.15645C4.36801 5.63626 5.59957 4.40466 7.1197 4.40466C8.63983 4.40466 9.87138 5.63626 9.87138 7.15645C9.87138 8.67663 8.63983 9.90823 7.1197 9.90823ZM9.48977 27.2674H4.74331V11.9961H9.48977V27.2674ZM29.6299 0.00179236H2.36062C1.07229 -0.0124003 0.015769 1.02051 0 2.30888V29.6912C0.015769 30.9811 1.07229 32.014 2.36062 31.9998H29.6299C30.9214 32.0156 31.9827 30.9827 32 29.6912V2.3073C31.9811 1.01578 30.9198 -0.0171312 29.6299 0.000215326" fill="white"/>
</svg>
