<svg width="113" height="35" viewBox="0 0 113 35" fill="none" xmlns="http://www.w3.org/2000/svg">
<path d="M0.905781 15.4C1.88578 15.36 2.60578 15.15 3.06578 14.77C3.52578 14.37 3.75578 13.81 3.75578 13.09C3.75578 12.55 3.65578 11.48 3.45578 9.88C3.43578 9.72 3.37578 9.21 3.27578 8.35C3.17578 7.47 3.12578 6.68 3.12578 5.98C3.12578 4.28 3.64578 2.96 4.68578 2.02C5.72578 1.06 7.11578 0.579999 8.85578 0.579999H11.0158V4.78H9.84578C9.20578 4.78 8.74578 4.92 8.46578 5.2C8.18578 5.48 8.04578 5.91 8.04578 6.49C8.04578 6.93 8.12578 7.93 8.28578 9.49C8.46578 11.43 8.55578 12.7 8.55578 13.3C8.55578 14.4 8.28578 15.31 7.74578 16.03C7.22578 16.75 6.42578 17.21 5.34578 17.41V17.47C6.42578 17.69 7.22578 18.16 7.74578 18.88C8.28578 19.58 8.55578 20.49 8.55578 21.61C8.55578 22.21 8.46578 23.48 8.28578 25.42C8.12578 26.94 8.04578 27.93 8.04578 28.39C8.04578 28.97 8.18578 29.4 8.46578 29.68C8.74578 29.98 9.20578 30.13 9.84578 30.13H11.0158V34.33H8.85578C7.11578 34.33 5.72578 33.85 4.68578 32.89C3.64578 31.95 3.12578 30.62 3.12578 28.9C3.12578 28.2 3.17578 27.42 3.27578 26.56C3.37578 25.68 3.43578 25.16 3.45578 25C3.65578 23.4 3.75578 22.33 3.75578 21.79C3.75578 21.11 3.52578 20.57 3.06578 20.17C2.60578 19.75 1.88578 19.52 0.905781 19.48V15.4ZM13.3865 19.6C13.3865 17.88 13.7065 16.37 14.3465 15.07C15.0065 13.77 15.8965 12.77 17.0165 12.07C18.1365 11.37 19.3865 11.02 20.7665 11.02C21.8665 11.02 22.8665 11.25 23.7665 11.71C24.6865 12.17 25.4065 12.79 25.9265 13.57V5.8H31.0565V28H25.9265V25.6C25.4465 26.4 24.7565 27.04 23.8565 27.52C22.9765 28 21.9465 28.24 20.7665 28.24C19.3865 28.24 18.1365 27.89 17.0165 27.19C15.8965 26.47 15.0065 25.46 14.3465 24.16C13.7065 22.84 13.3865 21.32 13.3865 19.6ZM25.9265 19.63C25.9265 18.35 25.5665 17.34 24.8465 16.6C24.1465 15.86 23.2865 15.49 22.2665 15.49C21.2465 15.49 20.3765 15.86 19.6565 16.6C18.9565 17.32 18.6065 18.32 18.6065 19.6C18.6065 20.88 18.9565 21.9 19.6565 22.66C20.3765 23.4 21.2465 23.77 22.2665 23.77C23.2865 23.77 24.1465 23.4 24.8465 22.66C25.5665 21.92 25.9265 20.91 25.9265 19.63ZM49.9478 19.36C49.9478 19.84 49.9178 20.34 49.8578 20.86H38.2478C38.3278 21.9 38.6578 22.7 39.2378 23.26C39.8378 23.8 40.5678 24.07 41.4278 24.07C42.7078 24.07 43.5978 23.53 44.0978 22.45H49.5578C49.2778 23.55 48.7678 24.54 48.0278 25.42C47.3078 26.3 46.3978 26.99 45.2978 27.49C44.1978 27.99 42.9678 28.24 41.6078 28.24C39.9678 28.24 38.5078 27.89 37.2278 27.19C35.9478 26.49 34.9478 25.49 34.2278 24.19C33.5078 22.89 33.1478 21.37 33.1478 19.63C33.1478 17.89 33.4978 16.37 34.1978 15.07C34.9178 13.77 35.9178 12.77 37.1978 12.07C38.4778 11.37 39.9478 11.02 41.6078 11.02C43.2278 11.02 44.6678 11.36 45.9278 12.04C47.1878 12.72 48.1678 13.69 48.8678 14.95C49.5878 16.21 49.9478 17.68 49.9478 19.36ZM44.6978 18.01C44.6978 17.13 44.3978 16.43 43.7978 15.91C43.1978 15.39 42.4478 15.13 41.5478 15.13C40.6878 15.13 39.9578 15.38 39.3578 15.88C38.7778 16.38 38.4178 17.09 38.2778 18.01H44.6978ZM73.4141 11.08C75.4941 11.08 77.1441 11.71 78.3641 12.97C79.6041 14.23 80.2241 15.98 80.2241 18.22V28H75.1241V18.91C75.1241 17.83 74.8341 17 74.2541 16.42C73.6941 15.82 72.9141 15.52 71.9141 15.52C70.9141 15.52 70.1241 15.82 69.5441 16.42C68.9841 17 68.7041 17.83 68.7041 18.91V28H63.6041V18.91C63.6041 17.83 63.3141 17 62.7341 16.42C62.1741 15.82 61.3941 15.52 60.3941 15.52C59.3941 15.52 58.6041 15.82 58.0241 16.42C57.4641 17 57.1841 17.83 57.1841 18.91V28H52.0541V11.26H57.1841V13.36C57.7041 12.66 58.3841 12.11 59.2241 11.71C60.0641 11.29 61.0141 11.08 62.0741 11.08C63.3341 11.08 64.4541 11.35 65.4341 11.89C66.4341 12.43 67.2141 13.2 67.7741 14.2C68.3541 13.28 69.1441 12.53 70.1441 11.95C71.1441 11.37 72.2341 11.08 73.4141 11.08ZM90.832 28.24C89.192 28.24 87.712 27.89 86.392 27.19C85.092 26.49 84.062 25.49 83.302 24.19C82.562 22.89 82.192 21.37 82.192 19.63C82.192 17.91 82.572 16.4 83.332 15.1C84.092 13.78 85.132 12.77 86.452 12.07C87.772 11.37 89.252 11.02 90.892 11.02C92.532 11.02 94.012 11.37 95.332 12.07C96.652 12.77 97.692 13.78 98.452 15.1C99.212 16.4 99.592 17.91 99.592 19.63C99.592 21.35 99.202 22.87 98.422 24.19C97.662 25.49 96.612 26.49 95.272 27.19C93.952 27.89 92.472 28.24 90.832 28.24ZM90.832 23.8C91.812 23.8 92.642 23.44 93.322 22.72C94.022 22 94.372 20.97 94.372 19.63C94.372 18.29 94.032 17.26 93.352 16.54C92.692 15.82 91.872 15.46 90.892 15.46C89.892 15.46 89.062 15.82 88.402 16.54C87.742 17.24 87.412 18.27 87.412 19.63C87.412 20.97 87.732 22 88.372 22.72C89.032 23.44 89.852 23.8 90.832 23.8ZM112.094 19.48C111.114 19.52 110.394 19.75 109.934 20.17C109.474 20.57 109.244 21.11 109.244 21.79C109.244 22.33 109.344 23.4 109.544 25C109.564 25.16 109.624 25.68 109.724 26.56C109.824 27.42 109.874 28.2 109.874 28.9C109.874 30.62 109.354 31.95 108.314 32.89C107.274 33.85 105.884 34.33 104.144 34.33H101.984V30.13H103.154C103.794 30.13 104.254 29.98 104.534 29.68C104.814 29.4 104.954 28.97 104.954 28.39C104.954 27.93 104.874 26.94 104.714 25.42C104.534 23.48 104.444 22.21 104.444 21.61C104.444 20.49 104.704 19.58 105.224 18.88C105.764 18.16 106.574 17.69 107.654 17.47V17.41C106.574 17.21 105.764 16.75 105.224 16.03C104.704 15.31 104.444 14.4 104.444 13.3C104.444 12.7 104.534 11.43 104.714 9.49C104.874 7.93 104.954 6.93 104.954 6.49C104.954 5.91 104.814 5.48 104.534 5.2C104.254 4.92 103.794 4.78 103.154 4.78H101.984V0.579999H104.144C105.884 0.579999 107.274 1.06 108.314 2.02C109.354 2.96 109.874 4.28 109.874 5.98C109.874 6.68 109.824 7.47 109.724 8.35C109.624 9.21 109.564 9.72 109.544 9.88C109.344 11.48 109.244 12.55 109.244 13.09C109.244 13.81 109.474 14.37 109.934 14.77C110.394 15.15 111.114 15.36 112.094 15.4V19.48Z" fill="white"/>
</svg>
