<svg width="67" height="64" viewBox="0 0 67 64" fill="none" xmlns="http://www.w3.org/2000/svg">
<path fill-rule="evenodd" clip-rule="evenodd" d="M39.1344 1.06177C38.6826 1.06177 38.2631 1.15886 37.8759 1.2883C38.6988 1.83845 39.1505 2.5666 39.3764 3.39183C39.3926 3.50509 39.4248 3.586 39.441 3.69926C39.4572 3.79635 39.4732 3.89344 39.4732 3.99053C39.5378 5.41445 39.1021 5.59244 38.7956 6.43385C38.3277 7.51798 38.4567 8.68301 39.0215 9.6215C39.0699 9.73477 39.1344 9.86421 39.2151 9.97748C38.602 5.8837 42.0065 5.26882 42.6357 3.99053C42.6841 2.87404 41.7644 2.12971 41.0383 1.61192C40.3445 1.19122 39.7153 1.06177 39.1344 1.06177ZM44.2654 1.98408C44.2008 2.35624 44.2492 2.25916 44.2331 2.45333C44.217 2.58278 44.217 2.74459 44.2009 2.87404C44.1686 3.00348 44.1363 3.13293 44.0879 3.26238C44.0557 3.39183 44.0072 3.52128 43.9588 3.65072C43.8943 3.78018 43.8459 3.89344 43.7813 4.02288C43.7329 4.08764 43.7007 4.15233 43.6523 4.21706C43.62 4.2656 43.5877 4.31414 43.5555 4.36269C43.4748 4.47596 43.3941 4.58922 43.3134 4.6863C43.2166 4.78339 43.1359 4.89666 43.023 4.97757V4.99377C42.9262 5.07467 42.8294 5.17176 42.7164 5.25266C42.3776 5.51155 41.9904 5.70573 41.6354 5.94844C41.5224 6.02935 41.4095 6.09407 41.3127 6.19116C41.1997 6.27206 41.1029 6.35296 41.0061 6.45005C40.8932 6.54714 40.8125 6.64423 40.7157 6.75749C40.635 6.85458 40.5382 6.96784 40.4737 7.08111C40.393 7.19438 40.3123 7.30765 40.2478 7.42091C40.1832 7.55035 40.1348 7.66363 40.0703 7.79307C40.0219 7.92252 39.9735 8.03579 39.9412 8.16523C39.8928 8.31086 39.8605 8.44031 39.8283 8.56976C39.8121 8.63451 39.8121 8.71539 39.796 8.78011C39.7798 8.84486 39.7798 8.90956 39.7638 8.97429C39.7638 9.10373 39.7476 9.24936 39.7476 9.37881C39.7476 9.47589 39.7476 9.57298 39.7638 9.67007C39.7638 9.79951 39.7799 9.92896 39.8122 10.0746C39.8283 10.204 39.8606 10.3335 39.8929 10.4629C39.9413 10.5924 39.9735 10.7218 40.0219 10.8513C40.0542 10.9322 40.1026 11.0131 40.1349 11.0778L36.4238 9.6377C35.7946 9.45971 35.1814 9.29791 34.5522 9.15228C34.2133 9.07137 33.8745 8.99046 33.5357 8.90956C32.5675 8.71539 31.5833 8.56976 30.5991 8.47268C30.5668 8.47268 30.5507 8.45647 30.5184 8.45647C29.5503 8.35939 28.5983 8.31085 27.6302 8.31085C26.9203 8.31085 26.2103 8.34318 25.5165 8.39175C24.5323 8.4565 23.5481 8.58592 22.5638 8.74773C22.3218 8.78007 22.0798 8.82864 21.8377 8.87718C21.3376 8.97426 20.8535 9.08753 20.3856 9.2008C20.1436 9.26555 19.9015 9.33025 19.6595 9.39497C19.4175 9.49205 19.1916 9.60532 18.9657 9.70241C18.7882 9.78331 18.6107 9.86422 18.4333 9.94513C18.401 9.96133 18.3687 9.96133 18.3526 9.97746C18.1912 10.0584 18.046 10.1231 17.9008 10.204C17.8524 10.2202 17.8201 10.2363 17.7879 10.2525C17.6104 10.3334 17.4329 10.4305 17.2877 10.5114C17.1747 10.56 17.0618 10.6247 16.965 10.6732C16.9166 10.7056 16.852 10.738 16.8198 10.7541C16.6745 10.8351 16.5293 10.916 16.4002 10.9969C16.255 11.0778 16.126 11.1587 16.013 11.2396C15.9001 11.3205 15.7871 11.3852 15.6903 11.4661C15.6741 11.4823 15.6581 11.4823 15.6419 11.4984C15.5451 11.5632 15.4321 11.6441 15.3353 11.725C15.3353 11.725 15.3192 11.7412 15.3031 11.7573C15.2224 11.8221 15.1417 11.8868 15.0611 11.9515C15.0288 11.9677 14.9965 12 14.9643 12.0162C14.8836 12.081 14.8029 12.1619 14.7222 12.2266C14.7061 12.2589 14.6738 12.2751 14.6577 12.2913C14.5609 12.3884 14.464 12.4693 14.3672 12.5664C14.3511 12.5664 14.3511 12.5826 14.335 12.5988C14.2382 12.6797 14.1414 12.7767 14.0446 12.8738C14.0284 12.89 14.0284 12.9062 14.0123 12.9062C13.9316 12.9871 13.851 13.068 13.7703 13.1651C13.738 13.1974 13.6896 13.2298 13.6573 13.2621C13.5767 13.3592 13.4799 13.4563 13.383 13.5534C13.3669 13.5857 13.3346 13.6019 13.3185 13.6343C13.1894 13.7638 13.0765 13.8932 12.9474 14.0227C12.9312 14.0389 12.9151 14.055 12.899 14.0712C12.6408 14.3463 12.3665 14.6213 12.0761 14.8641C11.7857 15.123 11.4791 15.3657 11.1725 15.576C10.8498 15.8026 10.5433 15.9967 10.2044 16.1909C9.88172 16.3689 9.54288 16.5307 9.18791 16.6763C8.84907 16.822 8.4941 16.9514 8.13914 17.0647C7.46146 17.2103 6.76765 17.4854 6.17066 17.5339C6.04158 17.5339 5.89636 17.5663 5.76728 17.5825C5.62207 17.6148 5.49299 17.6472 5.36391 17.6796C5.23483 17.7281 5.10575 17.7766 4.97667 17.8252C4.84759 17.8737 4.71851 17.9384 4.58943 18.0032C4.47648 18.0841 4.3474 18.1488 4.23445 18.2297C4.12151 18.3106 4.00856 18.4077 3.91175 18.5048C3.79881 18.5857 3.68586 18.699 3.58905 18.796C3.49224 18.9093 3.39543 19.0064 3.31476 19.1197C3.23408 19.2491 3.13727 19.3624 3.07273 19.4918C2.99206 19.6051 2.91138 19.7345 2.84684 19.864C2.78227 20.0096 2.71776 20.1391 2.66936 20.2847C2.62095 20.4141 2.57255 20.5598 2.52414 20.7054C2.4919 20.8348 2.45957 20.9643 2.44347 21.0937C2.44347 21.11 2.42731 21.1261 2.42731 21.1423C2.39506 21.2879 2.39506 21.4821 2.3789 21.5792C2.36274 21.6924 2.34666 21.7895 2.34666 21.9028C2.34666 21.9675 2.34666 22.0484 2.36282 22.1131C2.37898 22.2264 2.39506 22.3235 2.42738 22.4206C2.45963 22.5177 2.49195 22.6147 2.54032 22.7118V22.728C2.58873 22.8251 2.65327 22.9222 2.71781 23.0193C2.78237 23.1164 2.84689 23.2135 2.92757 23.3106C3.00824 23.3915 3.10505 23.4885 3.20186 23.5695C3.29867 23.6665 3.39548 23.7474 3.50842 23.8283C3.89567 24.1681 3.99248 24.2814 4.49266 24.5403C4.57334 24.5889 4.65402 24.6212 4.75083 24.6698C4.76699 24.6698 4.78307 24.686 4.79923 24.686C4.79923 24.7183 4.79923 24.7345 4.8154 24.7669C4.83156 24.8963 4.8638 25.0258 4.89607 25.1552C4.92832 25.3008 4.97675 25.4303 5.02516 25.5436C5.07356 25.6406 5.10583 25.7377 5.15424 25.8348C5.1704 25.8672 5.18648 25.8996 5.20264 25.9157C5.26721 26.0452 5.33172 26.1584 5.39626 26.2717C5.47694 26.385 5.55761 26.4982 5.63828 26.6115C5.71896 26.7086 5.81577 26.8219 5.91258 26.9189C6.00939 27.016 6.1062 27.0969 6.21915 27.194C6.21915 27.194 6.23531 27.2102 6.25139 27.2102C6.3482 27.2911 6.44501 27.3721 6.54183 27.4368C6.65477 27.5177 6.76772 27.5824 6.89679 27.6471C7.00974 27.7119 7.13882 27.7766 7.2679 27.8251C7.36471 27.8737 7.47765 27.906 7.5906 27.9384C7.60676 27.9546 7.62285 27.9546 7.65517 27.9707C7.71973 27.987 7.80037 28.0031 7.86492 28.0193C7.81651 28.893 7.80035 29.7183 7.92948 30.0095C8.07469 30.3331 8.78464 29.3461 9.49458 28.2134C9.39777 29.3299 9.33323 30.6406 9.49458 31.0289C9.67207 31.4334 10.6402 30.1713 11.4792 28.7798C22.9189 26.1261 33.3583 34.0548 34.4555 45.252C34.2457 43.5044 32.0998 42.5336 31.1155 42.7763C30.6315 43.9737 29.8086 45.5109 28.4855 46.4656C28.5985 45.3976 28.5501 44.2973 28.3242 43.2294C27.9692 44.718 27.2754 46.1096 26.3234 47.307C24.7906 47.4202 23.2578 46.6759 22.451 45.5594C22.3864 45.5109 22.3703 45.4138 22.3219 45.3491C22.2735 45.2358 22.2251 45.1226 22.1928 45.0093C22.1444 44.896 22.1122 44.7827 22.096 44.6695C22.0799 44.5562 22.0799 44.4429 22.0799 44.3135C22.0799 44.2326 22.0799 44.1517 22.0799 44.0708C22.096 43.9575 22.1283 43.8442 22.1605 43.731C22.1928 43.6177 22.2251 43.5044 22.2735 43.3912C22.3381 43.2779 22.3864 43.1646 22.4671 43.0514C22.7414 42.2747 22.7414 41.6436 22.2412 41.2715C22.1444 41.2067 22.0476 41.1582 21.9347 41.1097C21.8701 41.0935 21.7894 41.0611 21.7249 41.0449C21.6765 41.0287 21.6442 41.0126 21.5958 40.9964C21.4829 40.964 21.3699 40.9316 21.257 40.9155C21.144 40.8831 21.0311 40.8669 20.9182 40.8669C20.8052 40.8507 20.6761 40.8346 20.5632 40.8346C20.4825 40.8346 20.4018 40.8508 20.3212 40.8508C20.1921 40.8508 20.0791 40.867 19.9662 40.8993C19.8532 40.9156 19.7403 40.9317 19.6273 40.9641C19.5144 40.9964 19.4015 41.0288 19.2885 41.0774C19.1756 41.1259 19.0788 41.1744 18.9658 41.223C18.869 41.2715 18.7722 41.3362 18.6592 41.3848C14.8998 43.8443 17.1426 49.6047 19.708 51.2714C18.7399 51.4493 17.7557 51.6597 17.4814 51.8701C17.4652 51.8863 17.4492 51.9024 17.4492 51.9024C18.143 52.3231 18.869 52.6791 19.6274 52.9865C20.66 53.3263 21.7572 53.6338 22.2413 53.7632V53.7794C23.5805 54.0545 24.9358 54.1516 26.3073 54.0707C33.4551 53.5691 39.3121 48.1161 40.377 40.9317C40.4093 41.0773 40.4416 41.2068 40.4739 41.3524C40.5223 41.6437 40.5868 41.9511 40.6191 42.2586V42.2748C40.6513 42.4204 40.6675 42.566 40.6836 42.6955V42.7602C40.6998 42.9059 40.7159 43.0515 40.7159 43.1809C40.732 43.3589 40.7481 43.5369 40.7481 43.7149V43.9738C40.7481 44.0547 40.7643 44.1518 40.7643 44.2327C40.7643 44.3298 40.7481 44.4269 40.7481 44.524V44.7505C40.7481 44.8638 40.7319 44.9608 40.7319 45.0741C40.7319 45.1389 40.7319 45.2036 40.7158 45.2845C40.7158 45.3977 40.6996 45.511 40.6996 45.6404C40.6834 45.689 40.6834 45.7375 40.6834 45.7861C40.6673 45.9155 40.6512 46.0288 40.635 46.1582C40.635 46.2068 40.635 46.2553 40.6189 46.3039C40.6027 46.4657 40.5705 46.6113 40.5543 46.7731V46.7893V46.8055C40.5221 46.9512 40.4897 47.113 40.4575 47.2586V47.3072C40.4253 47.4528 40.3929 47.5984 40.3607 47.744C40.3607 47.7603 40.3445 47.7926 40.3445 47.8088C40.3123 47.9544 40.28 48.1 40.2316 48.2457V48.2942C40.1832 48.456 40.1348 48.6016 40.1025 48.7473C40.0864 48.7635 40.0864 48.7796 40.0864 48.7796C40.038 48.9414 39.9896 49.1032 39.9412 49.265C39.8766 49.4269 39.8282 49.5725 39.7637 49.7343C39.6991 49.8961 39.6507 50.0579 39.5862 50.2035C39.5216 50.3654 39.4571 50.511 39.3926 50.6728H39.3764C39.3118 50.8184 39.2473 50.9802 39.1666 51.1259C39.1505 51.1744 39.1344 51.2068 39.1182 51.2391C39.1021 51.2553 39.1021 51.2715 39.086 51.2877C38.0372 53.4074 36.4882 55.2682 34.552 56.7245C34.4229 56.8054 34.2939 56.9025 34.1648 56.9995C34.1325 57.0319 34.0841 57.0481 34.0518 57.0804C33.9389 57.1614 33.8259 57.2423 33.6969 57.3232L33.7453 57.4203H33.7614C33.9873 57.3879 34.2132 57.3555 34.4391 57.3232H34.4553C34.8748 57.2584 35.2943 57.1775 35.7138 57.0966C35.8267 57.0804 35.9558 57.0481 36.0688 57.0157C36.1494 56.9995 36.214 56.9834 36.2947 56.9672C36.4076 56.951 36.5205 56.9186 36.6335 56.9024C36.7303 56.8701 36.8271 56.8539 36.9239 56.8215C38.5374 56.4332 40.1025 55.8992 41.6031 55.2682C39.0376 58.7794 35.6008 61.6111 31.5832 63.4719C33.4388 63.3425 35.2943 63.035 37.0853 62.5172C43.5877 60.5917 49.0575 56.2066 52.3329 50.3006C51.6713 54.0384 50.1869 57.5982 47.9926 60.705C49.5577 59.6694 50.9937 58.472 52.3006 57.1128C55.9149 53.3264 58.2867 48.5207 59.0935 43.359C59.642 45.9156 59.8034 48.5531 59.5614 51.1582C71.2109 34.8639 60.5295 17.971 56.0601 13.5213C56.0439 13.4889 56.0278 13.4727 56.0278 13.4404C56.0116 13.4566 56.0116 13.4566 56.0116 13.4727C56.0116 13.4565 56.0116 13.4565 55.9955 13.4404C55.9955 13.6345 55.9793 13.8287 55.9632 14.0229C55.9148 14.395 55.8664 14.751 55.8019 15.107C55.7212 15.463 55.6244 15.8189 55.5276 16.1749C55.4147 16.5147 55.2856 16.8707 55.1404 17.2105C54.9951 17.5341 54.8338 17.8739 54.6563 18.1976C54.4788 18.505 54.2852 18.8286 54.0754 19.1199C53.8657 19.4273 53.6398 19.7186 53.4139 19.9936C53.1719 20.2849 52.9137 20.5438 52.6556 20.8027C52.4942 20.9483 52.349 21.0778 52.1876 21.2072C52.0586 21.3205 51.9456 21.4176 51.8165 21.5308C51.5261 21.7574 51.2357 21.9677 50.913 22.1619C50.6064 22.3561 50.2837 22.5502 49.961 22.712C49.6222 22.8739 49.2833 23.0195 48.9445 23.1651C48.6057 23.2946 48.2507 23.4078 47.8957 23.5049C47.5408 23.602 47.1697 23.6829 46.8147 23.7476C46.4436 23.8124 46.0725 23.8447 45.7175 23.8771C45.4593 23.8933 45.2012 23.9094 44.943 23.9094C44.5719 23.9094 44.2008 23.8771 43.8458 23.8447C43.4747 23.8123 43.1036 23.7638 42.7487 23.6828C42.3775 23.6181 42.0226 23.521 41.6676 23.4078H41.6515C42.0064 23.3754 42.3614 23.343 42.7164 23.2783C43.0875 23.2136 43.4424 23.1327 43.7974 23.0356C44.1524 22.9385 44.5074 22.8253 44.8462 22.6958C45.2012 22.5664 45.54 22.4046 45.8627 22.2427C46.2015 22.0809 46.5081 21.9029 46.8308 21.7088C47.1374 21.4984 47.4439 21.2881 47.7344 21.0615C48.0248 20.835 48.2991 20.5923 48.5572 20.3334C48.8315 20.0907 49.0736 19.8156 49.3156 19.5405C49.5576 19.2493 49.7835 18.958 49.9933 18.6667C50.0255 18.6182 50.0578 18.5535 50.0901 18.5049C50.2514 18.246 50.4128 17.9871 50.558 17.7282C50.7355 17.4046 50.8968 17.081 51.042 16.7412C51.1873 16.4014 51.3163 16.0616 51.4293 15.7056C51.5422 15.3658 51.6229 15.0098 51.7036 14.6539C51.7681 14.2817 51.8327 13.9257 51.8649 13.5697C51.8972 13.1976 51.9295 12.8254 51.9295 12.4694C51.9295 12.2105 51.9133 11.9516 51.8972 11.6928C51.865 11.3206 51.8166 10.9646 51.7682 10.6086C51.7036 10.2365 51.623 9.88049 51.5261 9.5245C51.4132 9.18471 51.3002 8.82872 51.1712 8.48893C51.0421 8.14912 50.8807 7.80932 50.7194 7.4857C50.5419 7.16208 50.3644 6.83846 50.1708 6.53103C49.961 6.22359 49.7513 5.93233 49.5254 5.64107C49.2834 5.36599 49.0413 5.09092 48.7832 4.81584C48.6541 4.6864 48.5089 4.54077 48.3637 4.41132C47.6376 3.84498 46.8792 3.31101 46.1209 2.82558C46.008 2.76084 45.9112 2.71232 45.7982 2.66377C45.2657 2.32397 44.7655 2.14589 44.2654 1.98408Z" fill="#E0234E"/>
</svg>
