<svg width="32" height="31" viewBox="0 0 32 31" fill="none" xmlns="http://www.w3.org/2000/svg">
<path d="M29.3333 21.855V25.73C29.3349 26.0898 29.2588 26.4458 29.11 26.7755C28.9613 27.1051 28.7431 27.4009 28.4695 27.6441C28.1958 27.8873 27.8728 28.0725 27.521 28.1877C27.1692 28.303 26.7965 28.3458 26.4267 28.3134C22.3238 27.8815 18.3827 26.5233 14.92 24.348C11.6985 22.3648 8.96713 19.7189 6.92001 16.598C4.66665 13.2283 3.26434 9.39175 2.82668 5.39921C2.79336 5.04202 2.83718 4.68203 2.95535 4.34214C3.07351 4.00226 3.26344 3.68993 3.51303 3.42505C3.76263 3.16017 4.06642 2.94854 4.40507 2.80363C4.74372 2.65873 5.1098 2.58371 5.48001 2.58338H9.48001C10.1271 2.57721 10.7544 2.79919 11.245 3.20794C11.7357 3.61669 12.0561 4.18433 12.1467 4.80504C12.3155 6.04513 12.6286 7.26273 13.08 8.43463C13.2594 8.89695 13.2982 9.39939 13.1919 9.88243C13.0855 10.3655 12.8385 10.8089 12.48 11.16L10.7867 12.8005C12.6848 16.0342 15.4486 18.7117 18.7867 20.5505L20.48 18.91C20.8425 18.5628 21.3002 18.3234 21.7988 18.2204C22.2975 18.1174 22.8161 18.155 23.2933 18.3288C24.503 18.7661 25.7599 19.0694 27.04 19.233C27.6877 19.3215 28.2792 19.6375 28.7021 20.121C29.1249 20.6044 29.3496 21.2216 29.3333 21.855Z" stroke="white" stroke-width="2" stroke-linecap="round" stroke-linejoin="round"/>
</svg>
