<svg width="71" height="64" viewBox="0 0 71 64" fill="none" xmlns="http://www.w3.org/2000/svg">
<g clip-path="url(#clip0_55_1675)">
<path d="M35.6674 38.7725C39.3398 38.7725 42.3168 35.7404 42.3168 32C42.3168 28.2597 39.3398 25.2275 35.6674 25.2275C31.9951 25.2275 29.0181 28.2597 29.0181 32C29.0181 35.7404 31.9951 38.7725 35.6674 38.7725Z" fill="#087EA4"/>
<path d="M35.6674 47.238C54.0291 47.238 68.9142 40.4157 68.9142 31.9999C68.9142 23.5842 54.0291 16.7618 35.6674 16.7618C17.3058 16.7618 2.42068 23.5842 2.42068 31.9999C2.42068 40.4157 17.3058 47.238 35.6674 47.238Z" stroke="#087EA4" stroke-width="3"/>
<path d="M22.7108 39.619C31.8916 55.8152 45.1351 65.5336 52.2908 61.3257C59.4466 57.1178 57.8049 40.5771 48.6241 24.3809C39.4432 8.18475 26.1998 -1.53366 19.0441 2.67422C11.8883 6.88211 13.53 23.4228 22.7108 39.619Z" stroke="#087EA4" stroke-width="3"/>
<path d="M22.7108 24.3808C13.53 40.577 11.8883 57.1177 19.0441 61.3256C26.1998 65.5335 39.4433 55.8151 48.6241 39.6189C57.8049 23.4228 59.4466 6.88205 52.2908 2.67416C45.1351 -1.53372 31.8916 8.18469 22.7108 24.3808Z" stroke="#087EA4" stroke-width="3"/>
</g>
<defs>
<clipPath id="clip0_55_1675">
<rect width="69.8182" height="64" fill="white" transform="translate(0.758362)"/>
</clipPath>
</defs>
</svg>
