<svg width="65" height="64" viewBox="0 0 65 64" fill="none" xmlns="http://www.w3.org/2000/svg">
<g clip-path="url(#clip0_55_1664)">
<path d="M61.4235 0H3.42346C1.76661 0 0.423462 1.34315 0.423462 3V61C0.423462 62.6569 1.76661 64 3.42346 64H61.4235C63.0803 64 64.4235 62.6569 64.4235 61V3C64.4235 1.34315 63.0803 0 61.4235 0Z" fill="#3178C6"/>
<path fill-rule="evenodd" clip-rule="evenodd" d="M37.5546 49.734V56.747C38.6908 57.331 40.0345 57.7695 41.5858 58.0615C43.1372 58.354 44.7722 58.5 46.4911 58.5C48.1662 58.5 49.7576 58.3395 51.265 58.018C52.773 57.6965 54.0945 57.167 55.231 56.429C56.367 55.691 57.2665 54.727 57.9295 53.536C58.592 52.3455 58.9235 50.8735 58.9235 49.1203C58.9235 47.8493 58.734 46.7353 58.3555 45.7783C57.9765 44.8214 57.4305 43.9704 56.7165 43.2252C56.003 42.4801 55.147 41.8117 54.1495 41.22C53.1515 40.6283 52.0265 40.0694 50.7735 39.5435C49.8559 39.1636 49.0329 38.7947 48.3046 38.4368C47.5762 38.0788 46.9572 37.7136 46.4474 37.341C45.9375 36.9684 45.5442 36.574 45.2675 36.1576C44.9907 35.7413 44.8523 35.27 44.8523 34.7441C44.8523 34.2619 44.9761 33.8273 45.2238 33.4402C45.4714 33.053 45.821 32.7206 46.2726 32.443C46.7241 32.1655 47.2776 31.95 47.9331 31.7966C48.5886 31.6431 49.3169 31.5664 50.1181 31.5664C50.701 31.5664 51.316 31.6103 51.9645 31.6979C52.6125 31.7856 53.2645 31.9207 53.92 32.1034C54.5755 32.286 55.2125 32.5161 55.832 32.7937C56.451 33.0713 57.0225 33.3927 57.547 33.7579V27.2054C56.4835 26.7963 55.322 26.4931 54.062 26.2959C52.802 26.0986 51.3565 26 49.7248 26C48.0642 26 46.4911 26.1789 45.0053 26.5369C43.5195 26.8948 42.2122 27.4537 41.0833 28.2134C39.9544 28.9731 39.0622 29.941 38.4067 31.1171C37.7512 32.2932 37.4235 33.6995 37.4235 35.3358C37.4235 37.4251 38.0243 39.2074 39.2261 40.683C40.4278 42.1587 42.2522 43.4079 44.6994 44.4305C45.6608 44.825 46.5566 45.2122 47.3869 45.592C48.2172 45.9719 48.9346 46.3664 49.5391 46.7755C50.1436 47.1846 50.6205 47.6302 50.97 48.1123C51.32 48.5944 51.4945 49.1423 51.4945 49.7559C51.4945 50.209 51.3855 50.629 51.167 51.016C50.9485 51.403 50.617 51.739 50.1727 52.024C49.7284 52.309 49.1749 52.532 48.5121 52.6925C47.8494 52.853 47.0737 52.9335 46.1852 52.9335C44.6702 52.9335 43.1699 52.667 41.6841 52.1335C40.1984 51.6005 38.8219 50.8005 37.5546 49.734ZM25.7748 32.2772H34.9235V26.5H9.42346V32.2772H18.5274V58H25.7748V32.2772Z" fill="white"/>
</g>
<defs>
<clipPath id="clip0_55_1664">
<rect width="64" height="64" fill="white" transform="translate(0.423462)"/>
</clipPath>
</defs>
</svg>
