<svg width="48" height="48" viewBox="0 0 48 48" fill="none" xmlns="http://www.w3.org/2000/svg">
<path d="M24.0001 0.666672C19.3852 0.666672 14.8739 2.03515 11.0368 4.59905C7.19964 7.16295 4.20895 10.8071 2.4429 15.0707C0.676858 19.3343 0.21478 24.0259 1.1151 28.5521C2.01542 33.0783 4.23771 37.2359 7.50093 40.4991C10.7642 43.7624 14.9218 45.9847 19.448 46.885C23.9742 47.7853 28.6658 47.3232 32.9294 45.5572C37.193 43.7911 40.8371 40.8004 43.401 36.9633C45.9649 33.1262 47.3334 28.6149 47.3334 24C47.326 17.8139 44.8653 11.8833 40.4911 7.50903C36.1168 3.13479 30.1862 0.674082 24.0001 0.666672V0.666672ZM35.3961 20.2293L22.5628 33.0627C22.2919 33.3336 21.9703 33.5485 21.6164 33.6951C21.2625 33.8417 20.8832 33.9172 20.5001 33.9172C20.117 33.9172 19.7377 33.8417 19.3837 33.6951C19.0298 33.5485 18.7083 33.3336 18.4374 33.0627L12.6041 27.2293C12.057 26.6823 11.7497 25.9403 11.7497 25.1667C11.7497 24.393 12.057 23.6511 12.6041 23.104C13.1511 22.5569 13.8931 22.2496 14.6668 22.2496C15.4404 22.2496 16.1824 22.5569 16.7294 23.104L20.5001 26.8747L31.2708 16.104C31.5416 15.8331 31.8632 15.6183 32.2171 15.4717C32.571 15.3251 32.9503 15.2496 33.3334 15.2496C33.7165 15.2496 34.0958 15.3251 34.4497 15.4717C34.8036 15.6183 35.1252 15.8331 35.3961 16.104C35.667 16.3749 35.8818 16.6964 36.0284 17.0504C36.175 17.4043 36.2505 17.7836 36.2505 18.1667C36.2505 18.5497 36.175 18.9291 36.0284 19.283C35.8818 19.6369 35.667 19.9585 35.3961 20.2293V20.2293Z" fill="#059669"/>
</svg>
